<?xml version="1.0" encoding="UTF-8"?>
<!--
  THE WURX DOG FACE, the mark wurxmedia.com already uses: byte-for-byte its own
  /favicon.svg with one addition, a viewBox.

  Why it is here: TikTok rejected the app on 2026-09-15 because "The app icon
  submitted in the Basic Info does not match the icon displayed on the website".
  Our tab wore an older geometric gold W while the official site wore this. One
  mark now: this tab icon, the TikTok app icon (public/tiktok-app-icon.png,
  rendered from this file) and the site header logo.

  THE viewBox IS THE FIX, not decoration. The original declares width and height
  512 and no viewBox, so asking it for 1024 draws a 512 face in the corner of an
  empty square instead of scaling it.
-->
<svg version="1.1" xmlns="http://www.w3.org/2000/svg" viewBox="0 0 512 512" width="512" height="512">
<path d="M0 0 C1.14103935 -0.00143509 1.14103935 -0.00143509 2.30513 -0.00289917 C3.90776655 -0.00357608 5.51040592 -0.00175608 7.11303711 0.00244141 C9.52659503 0.00775921 11.93996369 0.00249901 14.35351562 -0.00390625 C22.07318439 -0.00689012 29.68027646 0.16864613 37.37133789 0.91455078 C40.68319144 1.20462593 43.91463069 1.194792 47.23828125 1.1328125 C51.6214225 1.05220301 55.54972814 1.40398938 59.86328125 2.1328125 C63.46180351 2.39428148 67.0683663 2.52195975 70.67382812 2.65039062 C74.82969995 2.84652705 78.0451745 3.32751203 81.86328125 5.1328125 C82.83265625 5.4215625 83.80203125 5.7103125 84.80078125 6.0078125 C91.24384915 8.37465377 96.08805136 12.44529296 99.86328125 18.1328125 C100.94994199 21.82745901 101.12551681 24.48635422 99.86328125 28.1328125 C99.20328125 28.1328125 98.54328125 28.1328125 97.86328125 28.1328125 C97.69828125 29.0196875 97.53328125 29.9065625 97.36328125 30.8203125 C95.71279477 34.46513681 95.15474916 34.74982932 91.80078125 36.5078125 C88.6873129 38.18668542 88.6873129 38.18668542 87.1171875 41.22265625 C86.79352767 43.68307261 86.79352767 43.68307261 86.86328125 47.1328125 C88.50902691 47.15969401 90.15489538 47.17915373 91.80078125 47.1953125 C93.17556641 47.21271484 93.17556641 47.21271484 94.578125 47.23046875 C96.82921452 47.39230299 96.82921452 47.39230299 97.86328125 46.1328125 C100.14535521 46.03237244 102.43056142 46.001996 104.71484375 46 C105.75322891 45.99856491 105.75322891 45.99856491 106.81259155 45.99710083 C108.28375336 45.99641864 109.75491815 45.99827564 111.22607422 46.00244141 C113.45807862 46.00774079 115.6898773 46.00252317 117.921875 45.99609375 C119.35286502 45.99675547 120.78385492 45.99803858 122.21484375 46 C123.51244629 46.00112793 124.81004883 46.00225586 126.14697266 46.00341797 C131.48984488 46.18944624 136.64097571 47.02505072 141.86328125 48.1328125 C141.55390625 47.5759375 141.24453125 47.0190625 140.92578125 46.4453125 C139.86328125 44.1328125 139.86328125 44.1328125 139.73828125 41.7578125 C138.48865645 38.0089381 135.95592619 36.81952826 132.80859375 34.5859375 C130.19051145 32.63026157 128.98770337 31.22497333 127.86328125 28.1328125 C127.64131707 24.78270201 127.68758616 21.48403365 127.86328125 18.1328125 C128.85328125 17.8028125 129.84328125 17.4728125 130.86328125 17.1328125 C131.59651921 15.11772892 131.59651921 15.11772892 131.86328125 13.1328125 C132.52328125 13.1328125 133.18328125 13.1328125 133.86328125 13.1328125 C134.24033203 12.21048828 134.24033203 12.21048828 134.625 11.26953125 C136.69477607 7.6980249 140.14477673 6.62884526 143.86328125 5.1328125 C146.48828125 4.4453125 146.48828125 4.4453125 148.86328125 4.1328125 C149.70890625 3.9678125 150.55453125 3.8028125 151.42578125 3.6328125 C155.69067911 3.01246372 159.95570995 2.71343936 164.25390625 2.4140625 C166.8425775 2.28849275 166.8425775 2.28849275 168.86328125 1.1328125 C172.63092324 1.07288976 176.38534766 1.11092037 180.15234375 1.171875 C184.59947864 1.21436355 188.94308297 1.06906826 193.37109375 0.640625 C200.74368374 -0.02714359 208.09370479 -0.01744174 215.49023438 0.00244141 C217.85944007 0.00780381 220.22845626 0.00246257 222.59765625 -0.00390625 C230.25265959 -0.00690598 237.79583291 0.17708827 245.42285156 0.91455078 C248.37166107 1.17827984 251.27962042 1.19911302 254.23828125 1.1328125 C258.26386681 1.09631108 261.90312012 1.35799837 265.86328125 2.1328125 C271.92128078 3.00159538 277.87589776 3.15420796 283.98828125 3.0703125 C289.66173794 2.99754226 294.41748106 3.57686959 299.86328125 5.1328125 C301.75046875 5.0709375 301.75046875 5.0709375 303.67578125 5.0078125 C311.90799902 4.79714551 319.74096083 8.92232704 325.86328125 14.1328125 C328.03646563 17.19502685 328.56564195 20.41232123 328.86328125 24.1328125 C327.9152572 28.08291271 326.63369907 31.13152653 323.86328125 34.1328125 C323.20328125 34.1328125 322.54328125 34.1328125 321.86328125 34.1328125 C321.86328125 34.7928125 321.86328125 35.4528125 321.86328125 36.1328125 C307.12541717 42.1328125 307.12541717 42.1328125 298.86328125 42.1328125 C297.87328125 42.7928125 296.88328125 43.4528125 295.86328125 44.1328125 C293.8203125 44.546875 293.8203125 44.546875 291.67578125 44.7578125 C290.41765625 44.8815625 289.15953125 45.0053125 287.86328125 45.1328125 C287.73953125 46.2671875 287.61578125 47.4015625 287.48828125 48.5703125 C286.71220584 54.72426257 285.76866484 60.60926955 282.86328125 66.1328125 C282.12078125 67.8653125 282.12078125 67.8653125 281.36328125 69.6328125 C278.64469121 75.97618926 275.21479706 80.7856836 270.86328125 86.1328125 C270.24066406 86.90496094 269.61804688 87.67710937 268.9765625 88.47265625 C260.70595473 98.28666345 248.70480763 106.87836209 235.86328125 109.1328125 C235.20328125 109.4628125 234.54328125 109.7928125 233.86328125 110.1328125 C231.55543215 111.28673705 229.39097794 111.66718416 226.86328125 112.1328125 C227.12882812 112.78507812 227.394375 113.43734375 227.66796875 114.109375 C229.54325595 118.7496842 231.28037036 123.38407983 232.86328125 128.1328125 C233.1778125 128.73609375 233.49234375 129.339375 233.81640625 129.9609375 C236.73261142 136.01097509 238.02217409 142.45931312 237.86328125 149.1328125 C238.18651367 149.86564453 238.50974609 150.59847656 238.84277344 151.35351562 C240.09965595 154.776566 240.12228081 157.58257009 240.12890625 161.2265625 C240.1308197 161.89570679 240.13273315 162.56485107 240.13470459 163.25427246 C240.13605986 164.66284564 240.13240958 166.0714316 240.12402344 167.47998047 C240.11331393 169.62626412 240.12394048 171.77171089 240.13671875 173.91796875 C240.13539704 175.2916685 240.1328344 176.66536773 240.12890625 178.0390625 C240.12665039 179.27978516 240.12439453 180.52050781 240.12207031 181.79882812 C239.87084905 185.03531638 239.19110346 187.20466967 237.86328125 190.1328125 C237.56093868 192.52676121 237.56093868 192.52676121 237.48828125 194.9453125 C237.12842647 199.42350529 235.94523449 202.50632819 233.7734375 206.3984375 C232.62344366 208.58984207 232.29874812 210.70663994 231.86328125 213.1328125 C230.08232012 217.58521532 228.04484383 221.86453788 225.86328125 226.1328125 C225.53328125 226.8340625 225.20328125 227.5353125 224.86328125 228.2578125 C223.86328125 230.1328125 223.86328125 230.1328125 222.4765625 231.94921875 C220.8111919 234.20331601 219.4411126 236.51319017 218.05078125 238.9453125 C214.99903631 244.09228531 211.54024447 248.53363029 207.25 252.69921875 C205.75283783 254.10335043 205.75283783 254.10335043 204.86328125 256.1328125 C204.20328125 256.1328125 203.54328125 256.1328125 202.86328125 256.1328125 C202.86328125 256.7928125 202.86328125 257.4528125 202.86328125 258.1328125 C202.24453125 258.2153125 201.62578125 258.2978125 200.98828125 258.3828125 C198.16687951 259.37860135 198.14400167 260.49603516 196.86328125 263.1328125 C192.41883681 267.1328125 192.41883681 267.1328125 189.86328125 267.1328125 C189.86328125 267.7928125 189.86328125 268.4528125 189.86328125 269.1328125 C187.86775636 270.54618426 185.89529337 271.82002871 183.80078125 273.0703125 C182.67542969 273.75996094 181.55007813 274.44960938 180.390625 275.16015625 C176.99126883 277.13664789 173.49636774 278.63351246 169.86328125 280.1328125 C168.28546875 280.9371875 168.28546875 280.9371875 166.67578125 281.7578125 C164.30547293 282.9166299 162.40167059 283.55962781 159.86328125 284.1328125 C159.05890625 284.4628125 158.25453125 284.7928125 157.42578125 285.1328125 C154.89766277 286.11939532 152.5253127 286.64243829 149.86328125 287.1328125 C148.87328125 287.4628125 147.88328125 287.7928125 146.86328125 288.1328125 C141.00851039 289.7479217 135.06790521 290.33969289 129.03515625 290.8515625 C126.82015665 291.01743964 126.82015665 291.01743964 124.86328125 292.1328125 C120.99364659 292.37686938 117.11474159 292.31802415 113.23828125 292.3203125 C112.16964844 292.33255859 111.10101563 292.34480469 110 292.35742188 C103.88893339 292.36869691 98.72975652 291.80611379 92.86328125 290.1328125 C91.60515625 290.1328125 90.34703125 290.1328125 89.05078125 290.1328125 C85.86328125 290.1328125 85.86328125 290.1328125 82.86328125 288.1328125 C80.53940178 287.73893462 78.20534376 287.39795165 75.86328125 287.1328125 C75.86328125 286.4728125 75.86328125 285.8128125 75.86328125 285.1328125 C75.30640625 285.33390625 74.74953125 285.535 74.17578125 285.7421875 C71.19652185 286.24544078 69.63182314 285.54762585 66.86328125 284.3828125 C65.59484375 283.86460937 65.59484375 283.86460937 64.30078125 283.3359375 C61.90098352 282.15142195 59.98840853 280.74436735 57.86328125 279.1328125 C56.87328125 278.8028125 55.88328125 278.4728125 54.86328125 278.1328125 C51.86546711 277.13354112 50.34035099 276.02596893 47.86328125 274.1328125 C46.22062921 273.14831821 44.57447581 272.1696538 42.92578125 271.1953125 C35.77529972 266.68324394 29.90265031 260.99485281 23.86328125 255.1328125 C23.08597656 254.39546875 22.30867188 253.658125 21.5078125 252.8984375 C14.87391382 246.48267475 9.00505266 239.41635532 4.86328125 231.1328125 C4.86328125 230.1428125 4.86328125 229.1528125 4.86328125 228.1328125 C4.20328125 228.1328125 3.54328125 228.1328125 2.86328125 228.1328125 C2.57453125 227.2046875 2.28578125 226.2765625 1.98828125 225.3203125 C0.97578125 222.03489583 0.97578125 222.03489583 -1.13671875 219.1328125 C-0.80671875 218.4728125 -0.47671875 217.8128125 -0.13671875 217.1328125 C-0.79671875 217.1328125 -1.45671875 217.1328125 -2.13671875 217.1328125 C-3.26171875 213.3828125 -3.26171875 213.3828125 -2.13671875 211.1328125 C-2.79671875 211.1328125 -3.45671875 211.1328125 -4.13671875 211.1328125 C-7.1093796 202.6394958 -8.94846998 194.04467827 -10.13671875 185.1328125 C-10.32234375 183.8334375 -10.50796875 182.5340625 -10.69921875 181.1953125 C-12.396074 165.46573366 -10.77224738 149.9111345 -6.69921875 134.6953125 C-6.45300781 133.76847656 -6.20679688 132.84164062 -5.953125 131.88671875 C-5.16235623 129.21929301 -4.19660461 126.70314298 -3.13671875 124.1328125 C-2.64171875 122.6478125 -2.64171875 122.6478125 -2.13671875 121.1328125 C-1.47671875 121.1328125 -0.81671875 121.1328125 -0.13671875 121.1328125 C-0.46671875 120.1428125 -0.79671875 119.1528125 -1.13671875 118.1328125 C-0.64171875 117.7409375 -0.14671875 117.3490625 0.36328125 116.9453125 C2.31921268 114.58189535 2.10536098 113.11846247 1.86328125 110.1328125 C1.01894531 110.34421875 0.17460937 110.555625 -0.6953125 110.7734375 C-4.8465486 111.20693775 -7.31203251 110.35478291 -11.19921875 108.8828125 C-12.98005859 108.22539062 -12.98005859 108.22539062 -14.796875 107.5546875 C-17.79229699 106.27944352 -20.40234145 104.88538318 -23.13671875 103.1328125 C-23.83152344 102.70742187 -24.52632813 102.28203125 -25.2421875 101.84375 C-38.65371708 93.23822821 -48.71970879 82.21927216 -55.26171875 67.6953125 C-55.56940186 67.02105225 -55.87708496 66.34679199 -56.1940918 65.65209961 C-57.83638655 61.76664687 -58.49466803 59.18324742 -57.13671875 55.1328125 C-57.79671875 55.1328125 -58.45671875 55.1328125 -59.13671875 55.1328125 C-59.36458333 53.14713542 -59.59244792 51.16145833 -59.8203125 49.17578125 C-60.1084261 46.93884857 -60.1084261 46.93884857 -61.13671875 44.1328125 C-62.47476563 44.04193359 -62.47476563 44.04193359 -63.83984375 43.94921875 C-65.0103125 43.86542969 -66.18078125 43.78164062 -67.38671875 43.6953125 C-68.546875 43.61410156 -69.70703125 43.53289062 -70.90234375 43.44921875 C-73.475923 43.19745556 -75.67326905 42.8519562 -78.13671875 42.1328125 C-78.92949219 41.91882813 -79.72226563 41.70484375 -80.5390625 41.484375 C-88.3239575 39.25326488 -94.82005271 36.5381748 -99.265625 29.29296875 C-100.29676358 26.73593004 -100.40314063 24.75847662 -100.38671875 22.0078125 C-100.39445312 20.70457031 -100.39445312 20.70457031 -100.40234375 19.375 C-100.13671875 17.1328125 -100.13671875 17.1328125 -98.13671875 15.1328125 C-97.41484375 14.3284375 -96.69296875 13.5240625 -95.94921875 12.6953125 C-88.67178782 6.06476432 -78.80121331 5.01528875 -69.359375 4.37890625 C-67.16599133 4.37041716 -67.16599133 4.37041716 -66.13671875 3.1328125 C-62.36587129 3.0722974 -58.60814031 3.11264091 -54.83789062 3.171875 C-54.04318359 3.17960937 -53.24847656 3.18734375 -52.4296875 3.1953125 C-51.33950317 3.21271484 -51.33950317 3.21271484 -50.22729492 3.23046875 C-48.07098802 3.12974205 -46.21624003 2.68938066 -44.13671875 2.1328125 C-41.90121143 2.0688266 -39.68827628 2.13311699 -37.453125 2.1953125 C-35.11820109 2.20335066 -35.11820109 2.20335066 -32.8125 1.6328125 C-28.21723474 0.7741352 -23.58451281 1.11940649 -18.92578125 1.1953125 C-15.21672647 1.21967485 -15.21672647 1.21967485 -11.90844727 0.63720703 C-7.91710916 0.10344403 -4.01702876 -0.01139357 0 0 Z M224.86328125 110.1328125 C225.86328125 112.1328125 225.86328125 112.1328125 225.86328125 112.1328125 Z " fill="#F6CEA3" transform="translate(140.13671875,110.8671875)"/>
<path d="M0 0 C1.14103935 -0.00143509 1.14103935 -0.00143509 2.30513 -0.00289917 C3.90776655 -0.00357608 5.51040592 -0.00175608 7.11303711 0.00244141 C9.52659503 0.00775921 11.93996369 0.00249901 14.35351562 -0.00390625 C22.07318439 -0.00689012 29.68027646 0.16864613 37.37133789 0.91455078 C40.68319144 1.20462593 43.91463069 1.194792 47.23828125 1.1328125 C51.6214225 1.05220301 55.54972814 1.40398938 59.86328125 2.1328125 C63.46180351 2.39428148 67.0683663 2.52195975 70.67382812 2.65039062 C74.82969995 2.84652705 78.0451745 3.32751203 81.86328125 5.1328125 C82.83265625 5.4215625 83.80203125 5.7103125 84.80078125 6.0078125 C91.24384915 8.37465377 96.08805136 12.44529296 99.86328125 18.1328125 C100.94994199 21.82745901 101.12551681 24.48635422 99.86328125 28.1328125 C99.20328125 28.1328125 98.54328125 28.1328125 97.86328125 28.1328125 C97.71890625 28.9990625 97.57453125 29.8653125 97.42578125 30.7578125 C95.23172699 35.49696971 91.62447001 38.04471436 86.86328125 40.1328125 C85.52208241 39.83268824 84.18891133 39.49557107 82.86328125 39.1328125 C79.95659813 38.98143025 77.06869489 38.87637593 74.16015625 38.81640625 C73.32236633 38.79562515 72.48457642 38.77484406 71.62139893 38.75343323 C68.95210769 38.688187 66.28272027 38.62916892 63.61328125 38.5703125 C61.80077141 38.52710356 59.9882712 38.48348851 58.17578125 38.43945312 C53.73837916 38.33253121 49.30088057 38.23119384 44.86328125 38.1328125 C44.88950562 39.5396228 44.88950562 39.5396228 44.91625977 40.97485352 C44.80835685 47.40676229 41.04146236 53.19519687 36.80078125 57.8828125 C30.35078146 63.74771512 23.01686089 67.46756633 14.23828125 67.6953125 C3.9801669 67.13221792 -3.75441773 64.45865233 -11.13671875 57.1328125 C-15.83408466 51.34911786 -19.13671875 45.73518373 -19.13671875 38.1328125 C-24.51234542 38.20153608 -29.88718274 38.28942566 -35.26220703 38.39526367 C-37.09154525 38.42856276 -38.92098745 38.45657907 -40.75048828 38.47924805 C-43.37707931 38.51270327 -46.00271316 38.56501213 -48.62890625 38.62109375 C-49.44978729 38.62748367 -50.27066833 38.6338736 -51.11642456 38.64045715 C-53.66286249 38.67223467 -53.66286249 38.67223467 -57.13671875 39.1328125 C-57.79671875 40.1228125 -58.45671875 41.1128125 -59.13671875 42.1328125 C-60.12671875 42.1328125 -61.11671875 42.1328125 -62.13671875 42.1328125 C-62.13671875 42.7928125 -62.13671875 43.4528125 -62.13671875 44.1328125 C-64.05369812 43.99114893 -65.97029598 43.84431666 -67.88671875 43.6953125 C-68.9540625 43.61410156 -70.02140625 43.53289062 -71.12109375 43.44921875 C-73.59885833 43.18924604 -75.75520549 42.81670938 -78.13671875 42.1328125 C-78.92949219 41.91882813 -79.72226563 41.70484375 -80.5390625 41.484375 C-88.3239575 39.25326488 -94.82005271 36.5381748 -99.265625 29.29296875 C-100.29676358 26.73593004 -100.40314063 24.75847662 -100.38671875 22.0078125 C-100.39445312 20.70457031 -100.39445312 20.70457031 -100.40234375 19.375 C-100.13671875 17.1328125 -100.13671875 17.1328125 -98.13671875 15.1328125 C-97.41484375 14.3284375 -96.69296875 13.5240625 -95.94921875 12.6953125 C-88.67178782 6.06476432 -78.80121331 5.01528875 -69.359375 4.37890625 C-67.16599133 4.37041716 -67.16599133 4.37041716 -66.13671875 3.1328125 C-62.36587129 3.0722974 -58.60814031 3.11264091 -54.83789062 3.171875 C-54.04318359 3.17960937 -53.24847656 3.18734375 -52.4296875 3.1953125 C-51.33950317 3.21271484 -51.33950317 3.21271484 -50.22729492 3.23046875 C-48.07098802 3.12974205 -46.21624003 2.68938066 -44.13671875 2.1328125 C-41.90121143 2.0688266 -39.68827628 2.13311699 -37.453125 2.1953125 C-35.11820109 2.20335066 -35.11820109 2.20335066 -32.8125 1.6328125 C-28.21723474 0.7741352 -23.58451281 1.11940649 -18.92578125 1.1953125 C-15.21672647 1.21967485 -15.21672647 1.21967485 -11.90844727 0.63720703 C-7.91710916 0.10344403 -4.01702876 -0.01139357 0 0 Z " fill="#F5CAA1" transform="translate(140.13671875,110.8671875)"/>
<path d="M0 0 C2.36920569 0.0053624 4.73822188 0.00002116 7.10742188 -0.00634766 C14.76242522 -0.00934738 22.30559853 0.17464687 29.93261719 0.91210938 C32.8814267 1.17583844 35.78938604 1.19667162 38.74804688 1.13037109 C42.77363244 1.09386967 46.41288575 1.35555696 50.37304688 2.13037109 C56.4310464 2.99915397 62.38566339 3.15176655 68.49804688 3.06787109 C74.17150357 2.99510085 78.92724668 3.57442818 84.37304688 5.13037109 C86.26023437 5.06849609 86.26023437 5.06849609 88.18554688 5.00537109 C96.41776464 4.7947041 104.25072646 8.91988563 110.37304688 14.13037109 C112.54623126 17.19258545 113.07540757 20.40987983 113.37304688 24.13037109 C112.42502282 28.08047131 111.1434647 31.12908512 108.37304688 34.13037109 C107.71304688 34.13037109 107.05304688 34.13037109 106.37304688 34.13037109 C106.37304688 34.79037109 106.37304688 35.45037109 106.37304688 36.13037109 C91.6351828 42.13037109 91.6351828 42.13037109 83.37304688 42.13037109 C82.38304687 42.79037109 81.39304687 43.45037109 80.37304688 44.13037109 C73.50229858 45.69499694 73.50229858 45.69499694 70.37304688 44.13037109 C69.74804688 41.56787109 69.74804688 41.56787109 69.37304688 39.13037109 C60.7672655 38.26017865 52.26906538 38.00429743 43.62304688 38.06787109 C42.43710937 38.07238281 41.25117188 38.07689453 40.02929688 38.08154297 C37.1438246 38.09317794 34.25846474 38.1095227 31.37304688 38.13037109 C31.2621875 39.34466797 31.15132813 40.55896484 31.03710938 41.81005859 C30.05673911 49.5676226 25.39367701 56.10627123 19.30273438 60.88427734 C10.78166284 66.38675066 2.40942618 67.98637872 -7.62695312 67.13037109 C-16.20411862 65.17592264 -23.51576053 60.04757305 -28.22851562 52.59912109 C-30.48054397 48.22676196 -32.08624157 43.79615992 -33.62695312 39.13037109 C-38.96549136 39.1056345 -44.30399616 39.08749369 -49.64257812 39.07543945 C-51.45833925 39.07041369 -53.27409633 39.06359206 -55.08984375 39.05493164 C-57.70118203 39.0427892 -60.31246675 39.03712518 -62.92382812 39.03271484 C-63.7343866 39.02755356 -64.54494507 39.02239227 -65.38006592 39.01707458 C-69.60069655 38.97956769 -69.60069655 38.97956769 -73.73248291 39.71607971 C-75.62695312 40.13037109 -75.62695312 40.13037109 -77.88085938 38.87255859 C-86.23737904 32.1138168 -86.23737904 32.1138168 -87.62695312 28.13037109 C-87.84409896 24.78012109 -87.80264451 21.4815215 -87.62695312 18.13037109 C-86.63695312 17.80037109 -85.64695312 17.47037109 -84.62695312 17.13037109 C-83.89371516 15.11528751 -83.89371516 15.11528751 -83.62695312 13.13037109 C-82.96695312 13.13037109 -82.30695313 13.13037109 -81.62695312 13.13037109 C-81.37558594 12.51548828 -81.12421875 11.90060547 -80.86523438 11.26708984 C-78.7954583 7.6955835 -75.34545764 6.62640386 -71.62695312 5.13037109 C-69.00195312 4.44287109 -69.00195312 4.44287109 -66.62695312 4.13037109 C-65.78132813 3.96537109 -64.93570312 3.80037109 -64.06445312 3.63037109 C-59.79955526 3.01002231 -55.53452442 2.71099795 -51.23632812 2.41162109 C-48.64765687 2.28605134 -48.64765687 2.28605134 -46.62695312 1.13037109 C-42.85931113 1.07044836 -39.10488672 1.10847896 -35.33789062 1.16943359 C-30.89075574 1.21192214 -26.5471514 1.06662686 -22.11914062 0.63818359 C-14.74655064 -0.029585 -7.39652959 -0.01988314 0 0 Z " fill="#F4CAA0" transform="translate(355.626953125,110.86962890625)"/>
<path d="M0 0 C2.90834885 -0.26660183 5.60138268 -0.34779124 8.5078125 -0.29296875 C9.34843231 -0.28872391 10.18905212 -0.28447906 11.05514526 -0.28010559 C13.74541993 -0.26328532 16.43495099 -0.22562781 19.125 -0.1875 C20.94660378 -0.17245745 22.76821928 -0.1587683 24.58984375 -0.14648438 C29.06018324 -0.11337094 33.52996546 -0.06156637 38 0 C38.25612061 0.81476807 38.51224121 1.62953613 38.77612305 2.46899414 C39.12199463 3.54270264 39.46786621 4.61641113 39.82421875 5.72265625 C40.16283936 6.78492432 40.50145996 7.84719238 40.8503418 8.94165039 C43.50023294 15.99095733 48.33158773 21.4931059 55 25 C63.27113003 28.62409938 72.54184793 29.75085316 81.21484375 26.96875 C89.46345075 23.22411126 96.06936671 17.63819641 99.9375 9.3125 C100.93808987 6.19301393 101.49862591 3.22957185 102 0 C107.33852794 -0.0494731 112.67692214 -0.08575425 118.015625 -0.10986328 C119.83140386 -0.11991491 121.64716656 -0.13355828 123.46289062 -0.15087891 C126.07425935 -0.17516406 128.68541387 -0.18649148 131.296875 -0.1953125 C132.10743347 -0.20563507 132.91799194 -0.21595764 133.75311279 -0.22659302 C140.71585532 -0.22797609 140.71585532 -0.22797609 144 2 C144.375 5.1875 144.375 5.1875 144 9 C139.64456406 13.41706947 135.14910492 15.4321017 129.375 17.5 C127.76663925 18.1034 126.15856648 18.70756817 124.55078125 19.3125 C123.7717041 19.60125 122.99262695 19.89 122.18994141 20.1875 C99.26518757 28.69291592 80.87873785 43.59102036 67.82421875 64.3359375 C64.88764563 68.62446613 62.12968841 71.68775413 57 73 C48.85430125 72.67417205 40.82833526 69.31031791 34 65 C33.30519531 64.57460937 32.61039063 64.14921875 31.89453125 63.7109375 C18.48300167 55.10541571 8.41700996 44.08645966 1.875 29.5625 C1.41347534 28.55110962 1.41347534 28.55110962 0.94262695 27.51928711 C-0.6996678 23.63383437 -1.35794928 21.05043492 0 17 C-0.66 17 -1.32 17 -2 17 C-2.1953125 15.01432292 -2.390625 13.02864583 -2.5859375 11.04296875 C-2.92665391 8.70011858 -2.92665391 8.70011858 -5 6 C-5 5.34 -5 4.68 -5 4 C-4.01 3.67 -3.02 3.34 -2 3 C-1.34 2.01 -0.68 1.02 0 0 Z " fill="#F4E5D5" transform="translate(83,149)"/>
<path d="M0 0 C1.25586914 0.00616333 1.25586914 0.00616333 2.53710938 0.01245117 C18.42986773 0.15600464 18.42986773 0.15600464 21.35546875 2.41015625 C24.24603061 6.13143677 24.88670794 10.92659808 24.46875 15.5390625 C23.57418852 19.99696056 22.0913081 23.25800435 19.6875 27.125 C19.4709375 28.61 19.4709375 28.61 19.25 30.125 C18.56623098 33.77176811 17.05763698 35.32392903 14.6875 38.125 C14.28337891 39.24261719 14.28337891 39.24261719 13.87109375 40.3828125 C7.54500039 55.03930603 -8.19667699 65.17877419 -22.3125 71.125 C-23.97104046 71.49666173 -25.63675977 71.84077551 -27.3125 72.125 C-27.993125 72.475625 -28.67375 72.82625 -29.375 73.1875 C-31.3125 74.125 -31.3125 74.125 -35.3125 74.125 C-35.3125 73.465 -35.3125 72.805 -35.3125 72.125 C-36.05886719 72.21394531 -36.80523437 72.30289063 -37.57421875 72.39453125 C-40.3125 72.125 -40.3125 72.125 -42.26953125 70.32421875 C-42.88183594 69.49535156 -43.49414062 68.66648437 -44.125 67.8125 C-44.81335938 66.89984375 -45.50171875 65.9871875 -46.2109375 65.046875 C-47.57803329 63.14615446 -48.93782543 61.24015215 -50.2890625 59.328125 C-66.67277702 36.22121288 -89.88536317 23.05437454 -116.140625 13.984375 C-118.88769313 12.8974056 -120.86677197 11.77130564 -122.5625 9.3125 C-123.50272104 6.57018864 -123.07784775 4.8802519 -122.3125 2.125 C-118.42788953 0.83012984 -114.75366044 1.0017396 -110.70703125 1.02734375 C-109.86782639 1.0287587 -109.02862152 1.03017365 -108.16398621 1.03163147 C-105.48428784 1.03722785 -102.8046731 1.04977965 -100.125 1.0625 C-98.30794392 1.06751547 -96.49088652 1.07207829 -94.67382812 1.07617188 C-90.22001987 1.08719609 -85.76627411 1.10445822 -81.3125 1.125 C-80.9834668 1.94049316 -80.65443359 2.75598633 -80.31542969 3.59619141 C-79.87618164 4.67046387 -79.43693359 5.74473633 -78.984375 6.8515625 C-78.3361377 8.44605225 -78.3361377 8.44605225 -77.67480469 10.07275391 C-73.62061351 19.15617651 -67.31291375 24.19146439 -58.5 28.5 C-48.96349985 30.36990199 -39.37675319 29.66330008 -30.90234375 24.71875 C-22.61176062 18.85029049 -18.14355834 11.01271505 -16.3125 1.125 C-10.83380294 0.20088242 -5.55111237 -0.03267315 0 0 Z " fill="#F4E5D5" transform="translate(403.3125,147.875)"/>
<path d="M0 0 C4.23806799 2.86532617 7.27124573 5.76091896 10.0390625 10.0546875 C10.46832031 10.68503906 10.89757812 11.31539062 11.33984375 11.96484375 C15.66313248 19.67545149 15.46260136 30.49755719 13.30859375 38.90625 C12.3790844 41.11430895 11.33295356 43.04149516 10.0390625 45.0546875 C9.513125 45.98474609 9.513125 45.98474609 8.9765625 46.93359375 C4.65936731 53.87408463 -2.69630606 58.33763738 -10.45703125 60.578125 C-21.39032735 62.65903315 -30.3663056 60.63683493 -39.83203125 54.92578125 C-45.87408898 50.42170185 -50.04801303 43.22815426 -51.9609375 36.0546875 C-53.0921724 25.24269243 -52.59072934 16.13640648 -45.9609375 7.0546875 C-33.98545838 -7.03274627 -15.65865856 -8.8013679 0 0 Z " fill="#5A4127" transform="translate(271.9609375,186.9453125)"/>
<path d="M0 0 C20.79 0 41.58 0 63 0 C63 9.06674089 61.28192433 13.22871289 55.359375 19.828125 C47.66304236 26.9490309 38.40954285 29.40652184 28.16015625 29.26953125 C19.01781617 28.48977666 11.94368122 23.83464724 6 17 C2.23504371 11.25821701 0.9873719 6.91160328 0 0 Z " fill="#5B432A" transform="translate(323,149)"/>
<path d="M0 0 C20.46 0 40.92 0 62 0 C62 8.92761134 60.84235381 13.12555995 55 19.625 C48.56011415 25.58531988 41.21292643 29.33321417 32.375 29.5625 C22.13055237 29.00015562 14.36285955 26.33475703 7 19 C1.85593394 12.4942694 0 8.53635156 0 0 Z " fill="#5B432A" transform="translate(122,149)"/>
<path d="M0 0 C0.66 0.33 1.32 0.66 2 1 C2 1.66 2 2.32 2 3 C2.99 3.33 3.98 3.66 5 4 C5.7348118 5.63662629 6.45890662 7.27967007 7.10546875 8.953125 C8.41524507 11.95016775 10.20258616 14.58441403 12.01171875 17.30078125 C13 19 13 19 13 21 C13.66 21.33 14.32 21.66 15 22 C16.9280676 24.01876578 18.81607081 26.05493867 20.6875 28.125 C25.0169622 32.86985655 29.4047292 37.50916717 34 42 C33.34 43.65 32.68 45.3 32 47 C25.09152535 46.56822033 19.86513807 41.18270921 15.5 36.25 C13 33.29787234 13 33.29787234 13 31 C12.01 30.67 11.02 30.34 10 30 C8.0625 27.453125 8.0625 27.453125 6 24.25 C5.319375 23.20328125 4.63875 22.1565625 3.9375 21.078125 C3.298125 20.06234375 2.65875 19.0465625 2 18 C1.42636719 17.10410156 0.85273437 16.20820313 0.26171875 15.28515625 C-1.19477968 12.64722566 -1.25438427 10.96781653 -1 8 C-1.66 8 -2.32 8 -3 8 C-3.33 6.35 -3.66 4.7 -4 3 C-2.68 2.01 -1.36 1.02 0 0 Z " fill="#744D32" transform="translate(67,182)"/>
<path d="M0 0 C1.32 0 2.64 0 4 0 C4.9765625 6.0546875 4.9765625 6.0546875 5 8 C4.34 8.66 3.68 9.32 3 10 C2.32507277 11.61982536 1.65132067 13.24015327 0.984375 14.86328125 C-1.61534571 20.50632582 -4.98057227 26.24877429 -9 31 C-9.66 31 -10.32 31 -11 31 C-11.165 31.680625 -11.33 32.36125 -11.5 33.0625 C-13.72756505 37.42481489 -17.24436444 39.94628477 -21 43 C-21.9075 43.804375 -22.815 44.60875 -23.75 45.4375 C-26 47 -26 47 -30 47 C-30 46.34 -30 45.68 -30 45 C-30.66 44.67 -31.32 44.34 -32 44 C-30.62703081 40.901158 -29.06646891 38.84702279 -26.62890625 36.50390625 C-25.97212891 35.86259766 -25.31535156 35.22128906 -24.63867188 34.56054688 C-23.25853698 33.23234556 -21.87832907 31.90422012 -20.49804688 30.57617188 C-17.0630793 27.22194791 -14.38871286 24.20251517 -12 20 C-11.34 20 -10.68 20 -10 20 C-9.7525 19.13375 -9.505 18.2675 -9.25 17.375 C-7.92701765 13.80294764 -6.13669124 11.13826526 -4 8 C-3.30686092 6.34416775 -2.63525576 4.67889021 -2 3 C-1.34 2.01 -0.68 1.02 0 0 Z " fill="#765134" transform="translate(439,182)"/>
<path d="M0 0 C2 2 2 2 2.41015625 4.2890625 C1.83358312 8.09993635 0.11721028 9.65136004 -2.5625 12.375 C-3.40941406 13.26960937 -4.25632813 14.16421875 -5.12890625 15.0859375 C-8 17 -8 17 -11.77734375 16.8515625 C-15 16 -15 16 -16 15 C-16.5625 11.875 -16.5625 11.875 -16 8 C-11.5844263 2.78346177 -7.02596551 -0.54045889 0 0 Z " fill="#715B45" transform="translate(249,190)"/>
<path d="M0 0 C3.21126933 1.77348207 6.04669852 3.82992371 8.8125 6.25 C8.4825 7.24 8.1525 8.23 7.8125 9.25 C3.91484681 8.70865928 1.87915391 7.64582337 -1.1875 5.25 C-5.50454334 2.91646306 -8.45511669 3.0468517 -13.1875 4.25 C-15.31490787 5.49696379 -17.30836479 6.8258718 -19.29296875 8.2890625 C-21.1875 9.25 -21.1875 9.25 -23.42578125 8.8984375 C-24.00714844 8.68445313 -24.58851563 8.47046875 -25.1875 8.25 C-23.79552671 4.86743279 -22.3849504 3.41311318 -19.25 1.5625 C-18.56035156 1.14613281 -17.87070313 0.72976563 -17.16015625 0.30078125 C-11.45991588 -2.73558441 -5.72563874 -2.76522325 0 0 Z " fill="#815F3B" transform="translate(262.1875,321.75)"/>
<path d="M0 0 C-5.7788987 4.0029593 -11.52585821 6.50669408 -18.1875 8.6875 C-19.9312752 9.27389092 -21.67477378 9.86110521 -23.41796875 10.44921875 C-24.2176709 10.71653809 -25.01737305 10.98385742 -25.84130859 11.25927734 C-28.26345089 12.09039923 -30.63929769 13.00782077 -33 14 C-28.17814811 5.65448711 -21.03109583 4.22456326 -12.25 1.75 C-11.29222656 1.46898437 -10.33445313 1.18796875 -9.34765625 0.8984375 C-7.97673828 0.50785156 -7.97673828 0.50785156 -6.578125 0.109375 C-5.74700195 -0.12813477 -4.91587891 -0.36564453 -4.05957031 -0.61035156 C-2 -1 -2 -1 0 0 Z " fill="#F3DCBE" transform="translate(225,160)"/>
<path d="M0 0 C0 0.66 0 1.32 0 2 C0.66 2 1.32 2 2 2 C2 2.66 2 3.32 2 4 C1.34 4 0.68 4 0 4 C-0.33 4.99 -0.66 5.98 -1 7 C-4.32091002 8.70533217 -6.18492784 9 -10 9 C-10.66 7.35 -11.32 5.7 -12 4 C-11.34 4 -10.68 4 -10 4 C-9.67 3.01 -9.34 2.02 -9 1 C-5.65441284 -0.80842549 -3.59559792 -1.33170293 0 0 Z " fill="#72462C" transform="translate(401,231)"/>
<path d="M0 0 C1.31722179 0.42307123 2.62872664 0.86397486 3.9375 1.3125 C4.66839844 1.55613281 5.39929688 1.79976562 6.15234375 2.05078125 C8 3 8 3 9 6 C9.66 6 10.32 6 11 6 C11 6.66 11 7.32 11 8 C10.34 8 9.68 8 9 8 C8.67 8.99 8.34 9.98 8 11 C2.63829787 10.40425532 2.63829787 10.40425532 0.125 8.8125 C-1.51413694 6.17166826 -1.2640815 4.03693727 -1 1 C-0.67 0.67 -0.34 0.34 0 0 Z " fill="#75462D" transform="translate(108,229)"/>
<path d="M0 0 C1.47668858 0.0133035 2.95331108 0.03716415 4.4296875 0.0703125 C5.18378906 0.07933594 5.93789062 0.08835937 6.71484375 0.09765625 C8.57826004 0.1212438 10.44151343 0.15711531 12.3046875 0.1953125 C12.3046875 1.1853125 12.3046875 2.1753125 12.3046875 3.1953125 C10.24226133 3.22248942 8.17973047 3.2417883 6.1171875 3.2578125 C4.96863281 3.26941406 3.82007812 3.28101562 2.63671875 3.29296875 C-0.28831836 3.20724082 -2.85847541 2.87380273 -5.6953125 2.1953125 C-3.6953125 0.1953125 -3.6953125 0.1953125 0 0 Z " fill="#E8C399" transform="translate(113.6953125,111.8046875)"/>
<path d="M0 0 C1.67542976 0.28604898 3.34385343 0.61781233 5 1 C5.33 1.99 5.66 2.98 6 4 C5.67 4.66 5.34 5.32 5 6 C2.69 6 0.38 6 -2 6 C-1.125 1.125 -1.125 1.125 0 0 Z " fill="#6F5943" transform="translate(233,218)"/>
<path d="M0 0 C2.31 0 4.62 0 7 0 C7 0.33 7 0.66 7 1 C9.64 1.33 12.28 1.66 15 2 C15 2.33 15 2.66 15 3 C9.39 3 3.78 3 -2 3 C-1.34 2.67 -0.68 2.34 0 2 C0 1.34 0 0.68 0 0 Z " fill="#FCDCB5" transform="translate(315,112)"/>
<path d="M0 0 C0 0.66 0 1.32 0 2 C0.66 2.33 1.32 2.66 2 3 C-2.29 3 -6.58 3 -11 3 C-6.577168 -0.317124 -5.28089024 -0.30466674 0 0 Z " fill="#FDDBAC" transform="translate(187,112)"/>
<path d="M0 0 C2.64 0.33 5.28 0.66 8 1 C4.91190305 2.76462683 3.76687864 3 0 3 C0 2.01 0 1.02 0 0 Z " fill="#C4AC6E" transform="translate(432,115)"/>
<path d="M0 0 C0.33 0 0.66 0 1 0 C1 3.96 1 7.92 1 12 C0.67 12 0.34 12 0 12 C0 8.04 0 4.08 0 0 Z " fill="#B46A3F" transform="translate(380,274)"/>
<path d="M0 0 C1.98 0 3.96 0 6 0 C6 0.33 6 0.66 6 1 C4.02 1 2.04 1 0 1 C0 0.67 0 0.34 0 0 Z " fill="#947F6A" transform="translate(85,113)"/>
<path d="M0 0 C1.65 0 3.3 0 5 0 C5 0.33 5 0.66 5 1 C3.35 1 1.7 1 0 1 C0 0.67 0 0.34 0 0 Z " fill="#CCB266" transform="translate(417,113)"/>
<path d="M0 0 C1 4 1 4 1 4 Z " fill="#BFBF5F" transform="translate(129,291)"/>
<path d="M0 0 C1 4 1 4 1 4 Z " fill="#BFBF5F" transform="translate(129,263)"/>
<path d="M0 0 C1 4 1 4 1 4 Z " fill="#5F3F00" transform="translate(444,184)"/>
<path d="" fill="#FFAA7F" transform="translate(0,0)"/>
<path d="M0 0 C3 1 3 1 3 1 Z " fill="#FFFFAA" transform="translate(440,115)"/>
<path d="M0 0 C3 1 3 1 3 1 Z " fill="#D4D455" transform="translate(209,113)"/>
<path d="M0 0 C2 1 2 1 2 1 Z " fill="#BF8080" transform="translate(273,401)"/>
<path d="M0 0 C2 1 2 1 2 1 Z " fill="#FFBFBF" transform="translate(231,401)"/>
<path d="M0 0 C2 1 2 1 2 1 Z " fill="#FF7F7F" transform="translate(284,399)"/>
<path d="" fill="#7F7F7F" transform="translate(0,0)"/>
<path d="" fill="#FFFF00" transform="translate(0,0)"/>
<path d="" fill="#FF7F7F" transform="translate(0,0)"/>
<path d="" fill="#000000" transform="translate(0,0)"/>
<path d="M0 0 C2 1 2 1 2 1 Z " fill="#FFFF7F" transform="translate(377,219)"/>
<path d="M0 0 C2 1 2 1 2 1 Z " fill="#7F7F7F" transform="translate(63,153)"/>
<path d="" fill="#FFFF40" transform="translate(0,0)"/>
<path d="M0 0 C2 1 2 1 2 1 Z " fill="#7F7F7F" transform="translate(64,115)"/>
<path d="M0 0 C2 1 2 1 2 1 Z " fill="#BFBFBF" transform="translate(297,113)"/>
<path d="" fill="#FFFF00" transform="translate(0,0)"/>
<path d="" fill="#808080" transform="translate(0,0)"/>
<path d="" fill="#FFFF00" transform="translate(0,0)"/>
<path d="" fill="#FFFFFF" transform="translate(0,0)"/>
<path d="" fill="#FFFF00" transform="translate(0,0)"/>
<path d="" fill="#FF0000" transform="translate(0,0)"/>
<path d="" fill="#FFFF00" transform="translate(0,0)"/>
<path d="" fill="#FFFF00" transform="translate(0,0)"/>
<path d="" fill="#FFFF00" transform="translate(0,0)"/>
<path d="" fill="#FFFF00" transform="translate(0,0)"/>
<path d="" fill="#000000" transform="translate(0,0)"/>
<path d="" fill="#FF0000" transform="translate(0,0)"/>
<path d="" fill="#000000" transform="translate(0,0)"/>
<path d="" fill="#FF0000" transform="translate(0,0)"/>
<path d="" fill="#000000" transform="translate(0,0)"/>
<path d="" fill="#FFFFFF" transform="translate(0,0)"/>
<path d="" fill="#FFFFFF" transform="translate(0,0)"/>
<path d="" fill="#FFFFFF" transform="translate(0,0)"/>
<path d="" fill="#FFFFFF" transform="translate(0,0)"/>
<path d="" fill="#FFFFFF" transform="translate(0,0)"/>
<path d="" fill="#FFFFFF" transform="translate(0,0)"/>
</svg>
